<?xml version="1.0" encoding="UTF-8"?>
<!--Generator: Apple Native CoreSVG 175.5-->
<!DOCTYPE svg
PUBLIC "-//W3C//DTD SVG 1.1//EN"
       "http://www.w3.org/Graphics/SVG/1.1/DTD/svg11.dtd">
<svg version="1.1" xmlns="http://www.w3.org/2000/svg" xmlns:xlink="http://www.w3.org/1999/xlink" width="16.2977" height="16.2981">
 <g>
  <rect height="16.2981" opacity="0" width="16.2977" x="0" y="0"/>
  <path d="M8.14762 16.2952C12.6163 16.2952 16.2977 12.611 16.2977 8.14762C16.2977 3.67894 12.611 0 8.14229 0C3.68142 0 0 3.67894 0 8.14762C0 12.611 3.68675 16.2952 8.14762 16.2952ZM8.14762 12.4136C5.83368 12.4136 3.89474 10.4694 3.89474 8.15295C3.89474 5.82871 5.82587 3.89226 8.14762 3.89226C10.4715 3.89226 12.4083 5.82907 12.4083 8.15295C12.4083 10.4772 10.4719 12.4136 8.14762 12.4136ZM8.14762 10.8375C9.6133 10.8375 10.8268 9.61614 10.8268 8.15295C10.8268 6.69757 9.603 5.47091 8.14762 5.47091C6.68443 5.47091 5.47091 6.68976 5.47091 8.15295C5.47091 9.60833 6.69757 10.8375 8.14762 10.8375Z" fill="#000000" />
 </g>
</svg>
