<svg width="22" height="22" viewBox="0 0 22 22" fill="none" xmlns="http://www.w3.org/2000/svg">
<rect width="22" height="22" fill="white"/>
<g clip-path="url(#clip0_1_2)">
<path d="M10.9688 18.9375C15.3281 18.9375 18.9375 15.3203 18.9375 10.9688C18.9375 6.60938 15.3203 3 10.9609 3C6.60938 3 3 6.60938 3 10.9688C3 15.3203 6.61719 18.9375 10.9688 18.9375ZM10.9688 15.2969C8.625 15.2969 6.65625 13.3203 6.65625 10.9766C6.65625 8.625 8.61719 6.65625 10.9688 6.65625C13.3125 6.65625 15.2891 8.63281 15.2891 10.9766C15.2891 13.3281 13.3203 15.2969 10.9688 15.2969ZM10.9688 14.0312C12.6406 14.0312 14.0156 12.6484 14.0156 10.9766C14.0156 9.3125 12.6328 7.92188 10.9688 7.92188C9.29688 7.92188 7.92188 9.30469 7.92188 10.9766C7.92188 12.6406 9.3125 14.0312 10.9688 14.0312Z" fill="black" fill-opacity="0.85"/>
</g>
<defs>
<clipPath id="clip0_1_2">
<rect width="15.9375" height="15.9453" fill="white" transform="translate(3 3)"/>
</clipPath>
</defs>
</svg>
